<?xml version="1.0" encoding="utf-8" standalone="no"?>
<!DOCTYPE svg PUBLIC "-//W3C//DTD SVG 1.1//EN"
  "http://www.w3.org/Graphics/SVG/1.1/DTD/svg11.dtd">
<!-- Created with matplotlib (http://matplotlib.org/) -->
<svg height="270.76825pt" version="1.1" viewBox="0 0 386.853906 270.76825" width="386.853906pt" xmlns="http://www.w3.org/2000/svg" xmlns:xlink="http://www.w3.org/1999/xlink">
 <defs>
  <style type="text/css">
*{stroke-linecap:butt;stroke-linejoin:round;}
  </style>
 </defs>
 <g id="figure_1">
  <g id="patch_1">
   <path d="M 0 270.76825 
L 386.853906 270.76825 
L 386.853906 0 
L 0 0 
z
" style="fill:#ffffff;"/>
  </g>
  <g id="axes_1">
   <g id="patch_2">
    <path d="M 40.625 233.212 
L 375.425 233.212 
L 375.425 32.332 
L 40.625 32.332 
z
" style="fill:#ffffff;"/>
   </g>
   <g id="patch_3">
    <path clip-path="url(#p67e06ef552)" d="M 303.632623 106.855477 
L 302.201749 95.363652 
L 291.182812 96.481248 
L 282.844068 102.785706 
L 286.705422 112.215557 
L 291.446205 115.80116 
L 295.232741 126.469958 
L 303.819731 121.269816 
L 303.189747 112.559458 
L 307.772652 104.673596 
z
" style="fill:#808080;opacity:0.6;stroke:#000000;stroke-linejoin:miter;"/>
   </g>
   <g id="patch_4">
    <path clip-path="url(#p67e06ef552)" d="M 294.965927 147.636067 
L 285.302148 153.603932 
L 274.447774 151.497658 
L 279.543828 161.831318 
L 277.407348 169.656937 
L 285.628266 168.131764 
L 291.92556 170.835118 
L 295.549322 165.054705 
L 292.492725 159.754338 
L 290.455387 155.428786 
z
" style="fill:#808080;opacity:0.6;stroke:#000000;stroke-linejoin:miter;"/>
   </g>
   <g id="patch_5">
    <path clip-path="url(#p67e06ef552)" d="M 175.345958 135.768461 
L 169.934359 123.235603 
L 177.927076 113.91812 
L 169.192181 107.084698 
L 157.709992 105.788941 
L 153.283329 116.213964 
L 154.058778 123.980965 
L 154.50669 133.426258 
L 163.872161 132.483063 
L 172.669186 132.620736 
z
" style="fill:#808080;opacity:0.6;stroke:#000000;stroke-linejoin:miter;"/>
   </g>
   <g id="patch_6">
    <path clip-path="url(#p67e06ef552)" d="M 290.120953 215.004494 
L 298.062703 212.998173 
L 308.448403 221.900351 
L 313.214015 211.416271 
L 308.741409 202.795112 
L 304.852656 195.258806 
L 296.945905 198.620721 
L 291.119608 201.087962 
L 288.639937 207.441657 
L 293.345697 212.023174 
z
" style="fill:#808080;opacity:0.6;stroke:#000000;stroke-linejoin:miter;"/>
   </g>
   <g id="patch_7">
    <path clip-path="url(#p67e06ef552)" d="M 120.204528 199.526859 
L 115.002813 197.01566 
L 109.903769 188.316472 
L 106.467887 197.37288 
L 96.79035 201.490907 
L 102.131942 209.473809 
L 108.148644 217.935718 
L 119.095594 216.514965 
L 121.125723 206.125897 
L 126.729621 197.490327 
z
" style="fill:#808080;opacity:0.6;stroke:#000000;stroke-linejoin:miter;"/>
   </g>
   <g id="patch_8">
    <path clip-path="url(#p67e06ef552)" d="M 275.056498 61.751551 
L 269.375607 59.689239 
L 263.164297 55.862591 
L 260.648665 62.693182 
L 250.513257 69.079608 
L 258.992058 75.560154 
L 266.745899 78.144263 
L 271.710873 72.263486 
L 276.50409 68.170073 
L 276.631 60.863911 
z
" style="fill:#808080;opacity:0.6;stroke:#000000;stroke-linejoin:miter;"/>
   </g>
   <g id="patch_9">
    <path clip-path="url(#p67e06ef552)" d="M 131.407835 82.270424 
L 121.765546 76.404281 
L 119.922931 89.449491 
L 116.542527 93.762338 
L 119.678118 98.293864 
L 122.728301 108.127914 
L 128.79723 99.888541 
L 140.113497 98.866459 
L 131.383221 91.232591 
L 133.28528 78.905759 
z
" style="fill:#808080;opacity:0.6;stroke:#000000;stroke-linejoin:miter;"/>
   </g>
   <g id="patch_10">
    <path clip-path="url(#p67e06ef552)" d="M 199.511565 168.443849 
L 198.722726 156.497232 
L 191.546867 147.440311 
L 180.091443 144.458603 
L 172.18329 152.597764 
L 164.991675 161.47408 
L 176.502346 166.884047 
L 180.132701 174.908545 
L 188.248524 171.963354 
L 197.65662 167.718921 
z
" style="fill:#808080;opacity:0.6;stroke:#000000;stroke-linejoin:miter;"/>
   </g>
   <g id="patch_11">
    <path clip-path="url(#p67e06ef552)" d="M 154.476197 217.34228 
L 163.01514 210.608839 
L 175.176283 213.008436 
L 175.520678 201.833148 
L 172.061056 191.984024 
L 162.381571 186.102677 
L 156.512131 196.876932 
L 153.816063 201.308492 
L 154.556528 206.225928 
L 157.600055 210.545202 
z
" style="fill:#808080;opacity:0.6;stroke:#000000;stroke-linejoin:miter;"/>
   </g>
   <g id="patch_12">
    <path clip-path="url(#p67e06ef552)" d="M 234.031707 91.447273 
L 234.147739 84.402196 
L 235.450182 78.867164 
L 230.885572 75.064372 
L 223.595797 69.925174 
L 215.446979 75.030902 
L 214.491938 84.507419 
L 220.34543 90.652662 
L 226.936693 95.210782 
L 237.76069 96.386939 
z
" style="fill:#808080;opacity:0.6;stroke:#000000;stroke-linejoin:miter;"/>
   </g>
   <g id="patch_13">
    <path clip-path="url(#p67e06ef552)" d="M 241.598407 180.88293 
L 236.185116 173.84853 
L 230.770637 180.333282 
L 220.78303 185.691702 
L 228.2852 193.589362 
L 233.173976 204.28952 
L 242.980198 198.082001 
L 254.011263 194.246446 
L 247.058976 184.169287 
L 243.736806 177.721707 
z
" style="fill:#808080;opacity:0.6;stroke:#000000;stroke-linejoin:miter;"/>
   </g>
   <g id="patch_14">
    <path clip-path="url(#p67e06ef552)" d="M 119.793722 149.326731 
L 117.97848 159.827807 
L 129.201693 158.7975 
L 134.583314 156.873183 
L 137.131732 152.835331 
L 139.519208 147.977817 
L 138.59032 139.769979 
L 130.25048 138.275968 
L 125.784731 144.712327 
L 123.089694 149.5838 
z
" style="fill:#808080;opacity:0.6;stroke:#000000;stroke-linejoin:miter;"/>
   </g>
   <g id="patch_15">
    <path clip-path="url(#p67e06ef552)" d="M 237.483237 127.912259 
L 226.350303 123.381047 
L 215.483587 126.59469 
L 216.658615 137.822348 
L 210.320726 145.978254 
L 220.314116 147.702567 
L 226.249125 149.256725 
L 231.225719 145.52154 
L 233.208453 139.745352 
L 236.303557 129.001004 
z
" style="fill:#808080;opacity:0.6;stroke:#000000;stroke-linejoin:miter;"/>
   </g>
   <g id="patch_16">
    <path clip-path="url(#p67e06ef552)" d="M 175.409857 67.655308 
L 167.33243 63.709544 
L 159.304714 68.683999 
L 156.871858 77.45793 
L 163.659758 82.579342 
L 166.672232 95.066465 
L 174.004555 84.778413 
L 180.550898 81.365054 
L 177.151899 74.753814 
L 173.946084 70.194951 
z
" style="fill:#808080;opacity:0.6;stroke:#000000;stroke-linejoin:miter;"/>
   </g>
   <g id="patch_17">
    <path clip-path="url(#p67e06ef552)" d="M 127.146166 58.056669 
L 120.141616 49.105198 
L 116.870301 41.894925 
L 109.360699 44.633389 
L 104.998713 47.959057 
L 97.576171 53.126763 
L 100.214358 62.369186 
L 109.276787 64.78633 
L 115.053357 59.232496 
L 120.255173 55.777286 
z
" style="fill:#808080;opacity:0.6;stroke:#000000;stroke-linejoin:miter;"/>
   </g>
   <g id="patch_18">
    <path clip-path="url(#p67e06ef552)" d="M 185.03633 212.688559 
L 192.948953 221.264406 
L 201.413543 220.357919 
L 205.713032 219.528387 
L 217.040776 220.247379 
L 209.059127 212.253415 
L 213.159701 198.990033 
L 202.218463 206.265602 
L 189.938582 201.305202 
L 189.011975 212.973129 
z
" style="fill:#808080;opacity:0.6;stroke:#000000;stroke-linejoin:miter;"/>
   </g>
   <g id="matplotlib.axis_1">
    <g id="xtick_1">
     <g id="line2d_1">
      <defs>
       <path d="M 0 0 
L 0 3.5 
" id="mb05b976089" style="stroke:#000000;stroke-width:0.8;"/>
      </defs>
      <g>
       <use style="stroke:#000000;stroke-width:0.8;" x="55.843182" xlink:href="#mb05b976089" y="233.212"/>
      </g>
     </g>
     <g id="text_1">
      <!-- 0 -->
      <defs>
       <path d="M 31.78125 66.40625 
Q 24.171875 66.40625 20.328125 58.90625 
Q 16.5 51.421875 16.5 36.375 
Q 16.5 21.390625 20.328125 13.890625 
Q 24.171875 6.390625 31.78125 6.390625 
Q 39.453125 6.390625 43.28125 13.890625 
Q 47.125 21.390625 47.125 36.375 
Q 47.125 51.421875 43.28125 58.90625 
Q 39.453125 66.40625 31.78125 66.40625 
z
M 31.78125 74.21875 
Q 44.046875 74.21875 50.515625 64.515625 
Q 56.984375 54.828125 56.984375 36.375 
Q 56.984375 17.96875 50.515625 8.265625 
Q 44.046875 -1.421875 31.78125 -1.421875 
Q 19.53125 -1.421875 13.0625 8.265625 
Q 6.59375 17.96875 6.59375 36.375 
Q 6.59375 54.828125 13.0625 64.515625 
Q 19.53125 74.21875 31.78125 74.21875 
z
" id="DejaVuSans-30"/>
      </defs>
      <g transform="translate(52.661932 247.810438)scale(0.1 -0.1)">
       <use xlink:href="#DejaVuSans-30"/>
      </g>
     </g>
    </g>
    <g id="xtick_2">
     <g id="line2d_2">
      <g>
       <use style="stroke:#000000;stroke-width:0.8;" x="116.715909" xlink:href="#mb05b976089" y="233.212"/>
      </g>
     </g>
     <g id="text_2">
      <!-- 10 -->
      <defs>
       <path d="M 12.40625 8.296875 
L 28.515625 8.296875 
L 28.515625 63.921875 
L 10.984375 60.40625 
L 10.984375 69.390625 
L 28.421875 72.90625 
L 38.28125 72.90625 
L 38.28125 8.296875 
L 54.390625 8.296875 
L 54.390625 0 
L 12.40625 0 
z
" id="DejaVuSans-31"/>
      </defs>
      <g transform="translate(110.353409 247.810438)scale(0.1 -0.1)">
       <use xlink:href="#DejaVuSans-31"/>
       <use x="63.623047" xlink:href="#DejaVuSans-30"/>
      </g>
     </g>
    </g>
    <g id="xtick_3">
     <g id="line2d_3">
      <g>
       <use style="stroke:#000000;stroke-width:0.8;" x="177.588636" xlink:href="#mb05b976089" y="233.212"/>
      </g>
     </g>
     <g id="text_3">
      <!-- 20 -->
      <defs>
       <path d="M 19.1875 8.296875 
L 53.609375 8.296875 
L 53.609375 0 
L 7.328125 0 
L 7.328125 8.296875 
Q 12.9375 14.109375 22.625 23.890625 
Q 32.328125 33.6875 34.8125 36.53125 
Q 39.546875 41.84375 41.421875 45.53125 
Q 43.3125 49.21875 43.3125 52.78125 
Q 43.3125 58.59375 39.234375 62.25 
Q 35.15625 65.921875 28.609375 65.921875 
Q 23.96875 65.921875 18.8125 64.3125 
Q 13.671875 62.703125 7.8125 59.421875 
L 7.8125 69.390625 
Q 13.765625 71.78125 18.9375 73 
Q 24.125 74.21875 28.421875 74.21875 
Q 39.75 74.21875 46.484375 68.546875 
Q 53.21875 62.890625 53.21875 53.421875 
Q 53.21875 48.921875 51.53125 44.890625 
Q 49.859375 40.875 45.40625 35.40625 
Q 44.1875 33.984375 37.640625 27.21875 
Q 31.109375 20.453125 19.1875 8.296875 
z
" id="DejaVuSans-32"/>
      </defs>
      <g transform="translate(171.226136 247.810438)scale(0.1 -0.1)">
       <use xlink:href="#DejaVuSans-32"/>
       <use x="63.623047" xlink:href="#DejaVuSans-30"/>
      </g>
     </g>
    </g>
    <g id="xtick_4">
     <g id="line2d_4">
      <g>
       <use style="stroke:#000000;stroke-width:0.8;" x="238.461364" xlink:href="#mb05b976089" y="233.212"/>
      </g>
     </g>
     <g id="text_4">
      <!-- 30 -->
      <defs>
       <path d="M 40.578125 39.3125 
Q 47.65625 37.796875 51.625 33 
Q 55.609375 28.21875 55.609375 21.1875 
Q 55.609375 10.40625 48.1875 4.484375 
Q 40.765625 -1.421875 27.09375 -1.421875 
Q 22.515625 -1.421875 17.65625 -0.515625 
Q 12.796875 0.390625 7.625 2.203125 
L 7.625 11.71875 
Q 11.71875 9.328125 16.59375 8.109375 
Q 21.484375 6.890625 26.8125 6.890625 
Q 36.078125 6.890625 40.9375 10.546875 
Q 45.796875 14.203125 45.796875 21.1875 
Q 45.796875 27.640625 41.28125 31.265625 
Q 36.765625 34.90625 28.71875 34.90625 
L 20.21875 34.90625 
L 20.21875 43.015625 
L 29.109375 43.015625 
Q 36.375 43.015625 40.234375 45.921875 
Q 44.09375 48.828125 44.09375 54.296875 
Q 44.09375 59.90625 40.109375 62.90625 
Q 36.140625 65.921875 28.71875 65.921875 
Q 24.65625 65.921875 20.015625 65.03125 
Q 15.375 64.15625 9.8125 62.3125 
L 9.8125 71.09375 
Q 15.4375 72.65625 20.34375 73.4375 
Q 25.25 74.21875 29.59375 74.21875 
Q 40.828125 74.21875 47.359375 69.109375 
Q 53.90625 64.015625 53.90625 55.328125 
Q 53.90625 49.265625 50.4375 45.09375 
Q 46.96875 40.921875 40.578125 39.3125 
z
" id="DejaVuSans-33"/>
      </defs>
      <g transform="translate(232.098864 247.810438)scale(0.1 -0.1)">
       <use xlink:href="#DejaVuSans-33"/>
       <use x="63.623047" xlink:href="#DejaVuSans-30"/>
      </g>
     </g>
    </g>
    <g id="xtick_5">
     <g id="line2d_5">
      <g>
       <use style="stroke:#000000;stroke-width:0.8;" x="299.334091" xlink:href="#mb05b976089" y="233.212"/>
      </g>
     </g>
     <g id="text_5">
      <!-- 40 -->
      <defs>
       <path d="M 37.796875 64.3125 
L 12.890625 25.390625 
L 37.796875 25.390625 
z
M 35.203125 72.90625 
L 47.609375 72.90625 
L 47.609375 25.390625 
L 58.015625 25.390625 
L 58.015625 17.1875 
L 47.609375 17.1875 
L 47.609375 0 
L 37.796875 0 
L 37.796875 17.1875 
L 4.890625 17.1875 
L 4.890625 26.703125 
z
" id="DejaVuSans-34"/>
      </defs>
      <g transform="translate(292.971591 247.810438)scale(0.1 -0.1)">
       <use xlink:href="#DejaVuSans-34"/>
       <use x="63.623047" xlink:href="#DejaVuSans-30"/>
      </g>
     </g>
    </g>
    <g id="xtick_6">
     <g id="line2d_6">
      <g>
       <use style="stroke:#000000;stroke-width:0.8;" x="360.206818" xlink:href="#mb05b976089" y="233.212"/>
      </g>
     </g>
     <g id="text_6">
      <!-- 50 -->
      <defs>
       <path d="M 10.796875 72.90625 
L 49.515625 72.90625 
L 49.515625 64.59375 
L 19.828125 64.59375 
L 19.828125 46.734375 
Q 21.96875 47.46875 24.109375 47.828125 
Q 26.265625 48.1875 28.421875 48.1875 
Q 40.625 48.1875 47.75 41.5 
Q 54.890625 34.8125 54.890625 23.390625 
Q 54.890625 11.625 47.5625 5.09375 
Q 40.234375 -1.421875 26.90625 -1.421875 
Q 22.3125 -1.421875 17.546875 -0.640625 
Q 12.796875 0.140625 7.71875 1.703125 
L 7.71875 11.625 
Q 12.109375 9.234375 16.796875 8.0625 
Q 21.484375 6.890625 26.703125 6.890625 
Q 35.15625 6.890625 40.078125 11.328125 
Q 45.015625 15.765625 45.015625 23.390625 
Q 45.015625 31 40.078125 35.4375 
Q 35.15625 39.890625 26.703125 39.890625 
Q 22.75 39.890625 18.8125 39.015625 
Q 14.890625 38.140625 10.796875 36.28125 
z
" id="DejaVuSans-35"/>
      </defs>
      <g transform="translate(353.844318 247.810438)scale(0.1 -0.1)">
       <use xlink:href="#DejaVuSans-35"/>
       <use x="63.623047" xlink:href="#DejaVuSans-30"/>
      </g>
     </g>
    </g>
    <g id="text_7">
     <!-- $x \: [m]$ -->
     <defs>
      <path d="M 60.015625 54.6875 
L 34.90625 27.875 
L 50.296875 0 
L 39.984375 0 
L 28.421875 21.6875 
L 8.296875 0 
L -2.59375 0 
L 24.3125 28.8125 
L 10.015625 54.6875 
L 20.3125 54.6875 
L 30.8125 34.90625 
L 49.125 54.6875 
z
" id="DejaVuSans-Oblique-78"/>
      <path d="M 8.59375 75.984375 
L 29.296875 75.984375 
L 29.296875 69 
L 17.578125 69 
L 17.578125 -6.203125 
L 29.296875 -6.203125 
L 29.296875 -13.1875 
L 8.59375 -13.1875 
z
" id="DejaVuSans-5b"/>
      <path d="M 89.796875 33.015625 
L 83.40625 0 
L 74.421875 0 
L 80.71875 32.71875 
Q 81.109375 34.8125 81.296875 36.328125 
Q 81.5 37.84375 81.5 38.921875 
Q 81.5 43.3125 79.046875 45.75 
Q 76.609375 48.1875 72.21875 48.1875 
Q 65.671875 48.1875 60.546875 43.28125 
Q 55.421875 38.375 53.90625 30.515625 
L 47.90625 0 
L 38.921875 0 
L 45.3125 32.71875 
Q 45.703125 34.515625 45.890625 36.046875 
Q 46.09375 37.59375 46.09375 38.8125 
Q 46.09375 43.265625 43.65625 45.71875 
Q 41.21875 48.1875 36.921875 48.1875 
Q 30.28125 48.1875 25.140625 43.28125 
Q 20.015625 38.375 18.5 30.515625 
L 12.5 0 
L 3.515625 0 
L 14.203125 54.6875 
L 23.1875 54.6875 
L 21.484375 46.1875 
Q 25.140625 50.984375 30.046875 53.484375 
Q 34.96875 56 40.578125 56 
Q 46.53125 56 50.359375 52.875 
Q 54.203125 49.75 54.984375 44.1875 
Q 59.078125 49.953125 64.46875 52.96875 
Q 69.875 56 75.875 56 
Q 82.90625 56 86.734375 51.953125 
Q 90.578125 47.90625 90.578125 40.484375 
Q 90.578125 38.875 90.375 36.9375 
Q 90.1875 35.015625 89.796875 33.015625 
z
" id="DejaVuSans-Oblique-6d"/>
      <path d="M 30.421875 75.984375 
L 30.421875 -13.1875 
L 9.71875 -13.1875 
L 9.71875 -6.203125 
L 21.390625 -6.203125 
L 21.390625 69 
L 9.71875 69 
L 9.71875 75.984375 
z
" id="DejaVuSans-5d"/>
     </defs>
     <g transform="translate(195.175 261.488563)scale(0.1 -0.1)">
      <use transform="translate(0 0.015625)" xlink:href="#DejaVuSans-Oblique-78"/>
      <use transform="translate(80.826606 0.015625)" xlink:href="#DejaVuSans-5b"/>
      <use transform="translate(119.840278 0.015625)" xlink:href="#DejaVuSans-Oblique-6d"/>
      <use transform="translate(217.252388 0.015625)" xlink:href="#DejaVuSans-5d"/>
     </g>
    </g>
   </g>
   <g id="matplotlib.axis_2">
    <g id="ytick_1">
     <g id="line2d_7">
      <defs>
       <path d="M 0 0 
L -3.5 0 
" id="mf10dd8b32e" style="stroke:#000000;stroke-width:0.8;"/>
      </defs>
      <g>
       <use style="stroke:#000000;stroke-width:0.8;" x="40.625" xlink:href="#mf10dd8b32e" y="224.081091"/>
      </g>
     </g>
     <g id="text_8">
      <!-- 0 -->
      <g transform="translate(27.2625 227.88031)scale(0.1 -0.1)">
       <use xlink:href="#DejaVuSans-30"/>
      </g>
     </g>
    </g>
    <g id="ytick_2">
     <g id="line2d_8">
      <g>
       <use style="stroke:#000000;stroke-width:0.8;" x="40.625" xlink:href="#mf10dd8b32e" y="193.644727"/>
      </g>
     </g>
     <g id="text_9">
      <!-- 5 -->
      <g transform="translate(27.2625 197.443946)scale(0.1 -0.1)">
       <use xlink:href="#DejaVuSans-35"/>
      </g>
     </g>
    </g>
    <g id="ytick_3">
     <g id="line2d_9">
      <g>
       <use style="stroke:#000000;stroke-width:0.8;" x="40.625" xlink:href="#mf10dd8b32e" y="163.208364"/>
      </g>
     </g>
     <g id="text_10">
      <!-- 10 -->
      <g transform="translate(20.9 167.007582)scale(0.1 -0.1)">
       <use xlink:href="#DejaVuSans-31"/>
       <use x="63.623047" xlink:href="#DejaVuSans-30"/>
      </g>
     </g>
    </g>
    <g id="ytick_4">
     <g id="line2d_10">
      <g>
       <use style="stroke:#000000;stroke-width:0.8;" x="40.625" xlink:href="#mf10dd8b32e" y="132.772"/>
      </g>
     </g>
     <g id="text_11">
      <!-- 15 -->
      <g transform="translate(20.9 136.571219)scale(0.1 -0.1)">
       <use xlink:href="#DejaVuSans-31"/>
       <use x="63.623047" xlink:href="#DejaVuSans-35"/>
      </g>
     </g>
    </g>
    <g id="ytick_5">
     <g id="line2d_11">
      <g>
       <use style="stroke:#000000;stroke-width:0.8;" x="40.625" xlink:href="#mf10dd8b32e" y="102.335636"/>
      </g>
     </g>
     <g id="text_12">
      <!-- 20 -->
      <g transform="translate(20.9 106.134855)scale(0.1 -0.1)">
       <use xlink:href="#DejaVuSans-32"/>
       <use x="63.623047" xlink:href="#DejaVuSans-30"/>
      </g>
     </g>
    </g>
    <g id="ytick_6">
     <g id="line2d_12">
      <g>
       <use style="stroke:#000000;stroke-width:0.8;" x="40.625" xlink:href="#mf10dd8b32e" y="71.899273"/>
      </g>
     </g>
     <g id="text_13">
      <!-- 25 -->
      <g transform="translate(20.9 75.698491)scale(0.1 -0.1)">
       <use xlink:href="#DejaVuSans-32"/>
       <use x="63.623047" xlink:href="#DejaVuSans-35"/>
      </g>
     </g>
    </g>
    <g id="ytick_7">
     <g id="line2d_13">
      <g>
       <use style="stroke:#000000;stroke-width:0.8;" x="40.625" xlink:href="#mf10dd8b32e" y="41.462909"/>
      </g>
     </g>
     <g id="text_14">
      <!-- 30 -->
      <g transform="translate(20.9 45.262128)scale(0.1 -0.1)">
       <use xlink:href="#DejaVuSans-33"/>
       <use x="63.623047" xlink:href="#DejaVuSans-30"/>
      </g>
     </g>
    </g>
    <g id="text_15">
     <!-- $y \: [m]$ -->
     <defs>
      <path d="M 24.8125 -5.078125 
Q 18.5625 -15.578125 14.625 -18.1875 
Q 10.6875 -20.796875 4.59375 -20.796875 
L -2.484375 -20.796875 
L -0.984375 -13.28125 
L 4.203125 -13.28125 
Q 7.953125 -13.28125 10.59375 -11.234375 
Q 13.234375 -9.1875 16.5 -3.21875 
L 19.28125 2 
L 7.171875 54.6875 
L 16.703125 54.6875 
L 25.78125 12.796875 
L 50.875 54.6875 
L 60.296875 54.6875 
z
" id="DejaVuSans-Oblique-79"/>
     </defs>
     <g transform="translate(14.8 145.622)rotate(-90)scale(0.1 -0.1)">
      <use transform="translate(0 0.015625)" xlink:href="#DejaVuSans-Oblique-79"/>
      <use transform="translate(80.826606 0.015625)" xlink:href="#DejaVuSans-5b"/>
      <use transform="translate(119.840278 0.015625)" xlink:href="#DejaVuSans-Oblique-6d"/>
      <use transform="translate(217.252388 0.015625)" xlink:href="#DejaVuSans-5d"/>
     </g>
    </g>
   </g>
   <g id="line2d_14">
    <path clip-path="url(#p67e06ef552)" d="M 56.451909 174.484108 
" style="fill:none;stroke:#000000;stroke-linecap:square;stroke-width:1.5;"/>
   </g>
   <g id="line2d_15">
    <path clip-path="url(#p67e06ef552)" d="M 55.843182 224.081091 
L 55.843182 41.462909 
L 360.206818 41.462909 
L 360.206818 224.081091 
L 55.843182 224.081091 
" style="fill:none;stroke:#000000;stroke-linecap:square;stroke-width:1.5;"/>
   </g>
   <g id="line2d_16">
    <defs>
     <path d="M -3 3 
L 3 3 
L 3 -3 
L -3 -3 
z
" id="mb40a835c3a" style="stroke:#000000;stroke-linejoin:miter;"/>
    </defs>
    <g clip-path="url(#p67e06ef552)">
     <use style="stroke:#000000;stroke-linejoin:miter;" x="56.451909" xlink:href="#mb40a835c3a" y="174.484108"/>
    </g>
   </g>
   <g id="line2d_17">
    <defs>
     <path d="M -3 3 
L 3 -3 
M -3 -3 
L 3 3 
" id="m58dc915d96" style="stroke:#000000;"/>
    </defs>
    <g clip-path="url(#p67e06ef552)">
     <use style="stroke:#000000;" x="360.206818" xlink:href="#m58dc915d96" y="107.973509"/>
    </g>
   </g>
   <g id="line2d_18">
    <path clip-path="url(#p67e06ef552)" d="M 56.451909 174.484108 
L 70.355979 174.261935 
L 73.864082 174.223934 
L 81.963472 174.33396 
L 86.828888 174.534488 
L 92.305113 174.72402 
L 102.702611 175.043575 
L 111.285606 175.210509 
L 116.144414 175.557668 
L 122.209186 176.092453 
L 127.681569 176.385303 
L 137.99357 177.273718 
L 146.458039 178.208211 
L 157.796768 180.488179 
L 166.66827 182.661829 
L 170.832645 183.571942 
L 178.481576 185.61216 
L 191.977125 189.352671 
L 191.977125 189.352671 
" style="fill:none;stroke:#000000;stroke-linecap:square;stroke-width:1.5;"/>
   </g>
   <g id="line2d_19">
    <path clip-path="url(#p67e06ef552)" d="M 56.451909 174.484108 
L 60.905307 174.4859 
L 67.602254 174.415761 
L 75.50133 173.952302 
L 81.5789 173.587652 
L 87.012928 172.883152 
L 97.861915 171.328451 
L 101.460325 170.697491 
L 107.413792 169.435948 
L 112.231363 168.716174 
L 120.052593 167.505155 
L 122.44254 167.040756 
L 132.442585 164.393399 
L 142.764541 160.705362 
L 148.477132 158.604729 
L 154.904295 156.721704 
L 158.395206 155.649725 
L 169.265325 151.699743 
L 172.736424 150.56385 
L 175.082796 149.901275 
L 175.082796 149.901275 
" style="fill:none;stroke:#000000;stroke-linecap:square;stroke-width:1.5;"/>
   </g>
   <g id="line2d_20">
    <path clip-path="url(#p67e06ef552)" d="M 56.451909 174.484108 
L 67.688252 174.242514 
L 70.72275 174.007329 
L 74.665978 173.827811 
L 78.906659 173.409965 
L 84.926002 172.488257 
L 90.956075 171.633097 
L 97.602539 170.812587 
L 101.201474 170.193561 
L 115.571441 167.556421 
L 119.815338 167.17291 
L 129.522188 166.432412 
L 142.716903 164.114479 
L 149.223326 162.53001 
L 152.700437 161.409959 
L 161.195304 158.05545 
L 167.360872 155.440489 
L 171.184064 153.557291 
L 171.720895 153.26963 
L 171.720895 153.26963 
" style="fill:none;stroke:#000000;stroke-linecap:square;stroke-width:1.5;"/>
   </g>
   <g id="line2d_21">
    <path clip-path="url(#p67e06ef552)" d="M 56.451909 174.484108 
L 58.879905 174.508789 
L 66.183732 174.702572 
L 71.493926 174.654995 
L 76.970515 174.453549 
L 84.267431 174.074204 
L 89.732839 173.698291 
L 102.515208 172.981257 
L 106.751212 172.510759 
L 111.581503 171.892099 
L 115.230475 171.744123 
L 135.186327 171.954775 
L 144.905428 172.622429 
L 152.78225 173.399005 
L 158.865193 173.600126 
L 163.122567 173.394424 
L 175.276504 172.650572 
L 179.523211 172.275766 
L 179.523211 172.275766 
" style="fill:none;stroke:#000000;stroke-linecap:square;stroke-width:1.5;"/>
   </g>
   <g id="line2d_22">
    <path clip-path="url(#p67e06ef552)" d="M 56.451909 174.484108 
L 62.475678 174.55845 
L 66.140085 174.719479 
L 75.228951 175.594549 
L 81.916246 175.99254 
L 84.350413 175.986048 
L 88.600421 175.659927 
L 91.607795 175.19133 
L 108.383717 172.169417 
L 112.018266 171.807671 
L 115.060157 171.720853 
L 120.149964 171.669712 
L 125.015827 171.447307 
L 132.918401 170.988131 
L 138.370988 170.448475 
L 141.976814 169.868518 
L 146.739386 168.853193 
L 153.25448 167.302184 
L 157.979218 166.121967 
L 170.550971 163.804068 
L 170.550971 163.804068 
" style="fill:none;stroke:#000000;stroke-linecap:square;stroke-width:1.5;"/>
   </g>
   <g id="line2d_23">
    <path clip-path="url(#p67e06ef552)" d="M 56.451909 174.484108 
L 59.489381 174.310802 
L 64.342813 173.899472 
L 69.607074 173.812384 
L 80.057078 173.844335 
L 90.383955 174.533414 
L 93.421929 174.746124 
L 101.251595 174.928915 
L 108.293765 174.842779 
L 111.333373 175.004762 
L 115.588511 175.26349 
L 119.232542 175.52475 
L 122.236254 176.015432 
L 126.983497 177.100484 
L 131.637081 178.537111 
L 135.744797 179.669694 
L 141.645188 181.182474 
L 145.715552 182.448726 
L 156.637526 186.26466 
L 161.774611 188.172576 
L 161.774611 188.172576 
" style="fill:none;stroke:#000000;stroke-linecap:square;stroke-width:1.5;"/>
   </g>
   <g id="line2d_24">
    <path clip-path="url(#p67e06ef552)" d="M 56.451909 174.484108 
L 61.331603 174.575067 
L 64.051983 174.466758 
L 67.078072 174.142116 
L 77.336663 172.799523 
L 84.615428 172.193118 
L 90.634068 171.270564 
L 100.864011 169.696363 
L 103.864109 169.186224 
L 107.434857 168.423421 
L 113.282141 166.71889 
L 118.54112 165.182068 
L 123.229211 163.861489 
L 127.302015 162.608871 
L 130.857614 161.772564 
L 136.227788 160.689934 
L 141.060491 160.089143 
L 144.08274 159.72485 
L 151.285739 158.503352 
L 156.069648 157.583264 
L 161.472979 156.675675 
L 165.017928 155.789793 
L 170.902313 154.21662 
L 170.902313 154.21662 
" style="fill:none;stroke:#000000;stroke-linecap:square;stroke-width:1.5;"/>
   </g>
   <g id="line2d_25">
    <path clip-path="url(#p67e06ef552)" d="M 56.451909 174.484108 
L 78.455276 174.42432 
L 95.65588 174.720659 
L 101.12314 175.09716 
L 109.024068 175.462843 
L 115.977552 175.227665 
L 123.083531 175.339701 
L 127.964123 175.529422 
L 142.950774 176.100749 
L 145.988342 176.304038 
L 149.236707 176.428677 
L 160.073021 176.616367 
L 163.713813 176.322404 
L 166.721446 175.86037 
L 172.665695 174.545637 
L 179.716577 172.618896 
L 179.716577 172.618896 
" style="fill:none;stroke:#000000;stroke-linecap:square;stroke-width:1.5;"/>
   </g>
   <g id="line2d_26">
    <path clip-path="url(#p67e06ef552)" d="M 56.451909 174.484108 
L 67.059215 174.360463 
L 74.899243 174.538056 
L 80.982844 174.762604 
L 83.822911 174.861794 
L 89.885363 175.426436 
L 92.898859 175.863159 
L 101.30799 177.257675 
L 106.137725 177.890517 
L 124.301454 179.794694 
L 132.798513 180.452671 
L 135.827018 180.749791 
L 138.863912 180.947048 
L 152.753538 182.687289 
L 156.933504 183.507835 
L 175.673144 185.751917 
L 184.688417 187.21487 
L 188.889657 187.932786 
L 194.349591 188.397518 
L 197.727216 188.508863 
L 201.172719 188.371881 
L 206.628476 188.196643 
L 209.962034 188.329697 
L 213.319746 188.342223 
L 223.180168 188.066293 
L 223.180168 188.066293 
" style="fill:none;stroke:#000000;stroke-linecap:square;stroke-width:1.5;"/>
   </g>
   <g id="line2d_27">
    <path clip-path="url(#p67e06ef552)" d="M 56.451909 174.484108 
L 85.389113 174.485537 
L 89.037455 174.642844 
L 92.053218 175.053623 
L 94.451172 175.477348 
L 107.490052 178.520541 
L 112.133475 179.988067 
L 117.343154 181.678237 
L 120.24715 182.590637 
L 123.086402 183.68735 
L 129.239553 186.331059 
L 137.502418 190.217425 
L 141.292076 192.169569 
L 143.948326 193.655969 
L 152.335304 198.609721 
L 154.4255 199.863625 
L 154.4255 199.863625 
" style="fill:none;stroke:#000000;stroke-linecap:square;stroke-width:1.5;"/>
   </g>
   <g id="line2d_28">
    <path clip-path="url(#p67e06ef552)" d="M 56.451909 174.484108 
L 58.273729 174.478052 
L 75.379873 174.047971 
L 80.852064 173.760105 
L 90.51925 173.811316 
L 93.550877 174.086191 
L 107.428971 175.924226 
L 110.442053 176.35705 
L 114.690403 176.697513 
L 121.376694 177.060952 
L 125.021053 177.307022 
L 130.495836 177.505758 
L 145.312102 177.287598 
L 156.847515 178.146118 
L 161.080097 178.631771 
L 171.249765 180.540428 
L 177.760403 182.095798 
L 195.851944 184.616039 
L 199.981755 184.821332 
L 202.986833 184.988523 
L 215.701175 186.259027 
L 222.32039 187.274958 
L 222.32039 187.274958 
" style="fill:none;stroke:#000000;stroke-linecap:square;stroke-width:1.5;"/>
   </g>
   <g id="line2d_29">
    <path clip-path="url(#p67e06ef552)" d="M 56.451909 174.484108 
L 62.607488 174.513334 
L 67.160042 174.539813 
L 71.965705 174.700777 
L 76.222138 174.920018 
L 79.264151 174.833338 
L 86.558747 174.392149 
L 92.634918 173.973623 
L 97.493773 173.624939 
L 100.514486 173.256575 
L 102.921183 172.889352 
L 107.157761 172.447718 
L 114.352927 171.175979 
L 120.329242 170.001413 
L 125.07479 168.906863 
L 130.338385 167.379749 
L 133.839173 166.337429 
L 139.190106 165.167687 
L 144.025502 164.586424 
L 150.072062 163.879846 
L 154.264429 163.107868 
L 165.638642 161.00071 
L 165.638642 161.00071 
" style="fill:none;stroke:#000000;stroke-linecap:square;stroke-width:1.5;"/>
   </g>
   <g id="line2d_30">
    <path clip-path="url(#p67e06ef552)" d="M 56.451909 174.484108 
L 59.373117 174.5356 
L 75.417337 175.043394 
L 79.041881 175.492858 
L 82.044779 175.993086 
L 92.192533 178.022217 
L 105.867931 181.044404 
L 111.819105 182.332433 
L 116.485472 183.728306 
L 125.168489 186.561289 
L 128.101971 187.374982 
L 137.000482 189.429618 
L 142.363518 190.555586 
L 150.113738 192.153772 
L 158.411629 194.075568 
L 158.411629 194.075568 
" style="fill:none;stroke:#000000;stroke-linecap:square;stroke-width:1.5;"/>
   </g>
   <g id="line2d_31">
    <path clip-path="url(#p67e06ef552)" d="M 56.451909 174.484108 
L 67.312364 174.790424 
L 69.723341 175.13273 
L 76.31789 176.301551 
L 79.866557 177.164274 
L 82.244133 177.687405 
L 85.821279 178.424359 
L 95.281787 180.747768 
L 104.292506 182.235708 
L 107.907162 182.762512 
L 116.923833 184.210537 
L 121.078243 185.162276 
L 130.544193 187.459559 
L 138.878427 189.247579 
L 143.648433 190.225062 
L 147.172872 191.178859 
L 158.142182 194.855513 
L 158.142182 194.855513 
" style="fill:none;stroke:#000000;stroke-linecap:square;stroke-width:1.5;"/>
   </g>
   <g id="line2d_32">
    <path clip-path="url(#p67e06ef552)" d="M 56.451909 174.484108 
L 59.200282 174.445649 
L 63.569567 174.446091 
L 68.066399 174.6366 
L 73.538123 174.937448 
L 92.515386 175.021942 
L 106.316337 174.639516 
L 110.069968 174.696823 
L 115.321935 174.704006 
L 122.011626 174.823049 
L 146.185718 174.515488 
L 150.126895 174.482428 
L 159.296796 174.498396 
L 162.698711 174.432651 
L 165.503142 174.332623 
L 169.624685 174.420804 
L 176.653033 174.555764 
L 179.990181 174.582909 
L 179.990181 174.582909 
" style="fill:none;stroke:#000000;stroke-linecap:square;stroke-width:1.5;"/>
   </g>
   <g id="line2d_33">
    <path clip-path="url(#p67e06ef552)" d="M 56.451909 174.484108 
L 70.401393 174.39282 
L 72.836361 174.366635 
L 81.344617 174.846961 
L 85.584657 175.277015 
L 89.79259 175.946318 
L 98.213041 177.260213 
L 108.496257 178.413001 
L 113.284131 179.301733 
L 115.706958 179.53877 
L 118.736736 179.822638 
L 130.799193 181.481981 
L 146.497111 183.514229 
L 149.495926 184.038163 
L 156.709319 185.19074 
L 163.331288 186.197635 
L 163.932686 186.291822 
L 163.932686 186.291822 
" style="fill:none;stroke:#000000;stroke-linecap:square;stroke-width:1.5;"/>
   </g>
   <g id="line2d_34">
    <path clip-path="url(#p67e06ef552)" d="M 56.451909 174.484108 
L 69.057431 174.764095 
L 80.549499 176.067879 
L 87.723676 177.449896 
L 93.036937 178.77597 
L 98.193732 180.631752 
L 102.665912 182.558761 
L 109.380245 185.436724 
L 112.846117 186.591095 
L 119.790255 188.854975 
L 127.717329 191.988652 
L 131.070827 193.438289 
L 133.303797 194.410919 
L 133.303797 194.410919 
" style="fill:none;stroke:#000000;stroke-linecap:square;stroke-width:1.5;"/>
   </g>
   <g id="line2d_35">
    <path clip-path="url(#p67e06ef552)" d="M 56.451909 174.484108 
L 65.955513 174.729264 
L 68.994155 174.560918 
L 72.626604 174.184272 
L 78.064686 173.509384 
L 81.692681 173.090151 
L 88.296345 171.988435 
L 91.333737 171.785642 
L 93.764129 171.643645 
L 101.016894 170.756146 
L 104.041057 170.414305 
L 113.110745 169.345851 
L 116.711792 168.732086 
L 131.171133 166.620937 
L 140.264589 165.787396 
L 150.476798 165.093434 
L 157.008744 165.018765 
L 172.132592 164.944898 
L 172.383997 164.946168 
L 172.383997 164.946168 
" style="fill:none;stroke:#000000;stroke-linecap:square;stroke-width:1.5;"/>
   </g>
   <g id="line2d_36">
    <path clip-path="url(#p67e06ef552)" d="M 56.451909 174.484108 
L 60.336165 174.379282 
L 62.758253 174.13435 
L 68.176834 173.327082 
L 73.607864 172.610517 
L 82.121738 172.161532 
L 86.859654 172.085745 
L 92.383353 172.180074 
L 97.245728 172.49127 
L 102.111384 172.723711 
L 123.865302 172.657823 
L 128.343143 172.587975 
L 134.19242 172.804532 
L 139.05719 173.02141 
L 142.705694 173.162986 
L 146.94327 173.628159 
L 150.520571 174.365615 
L 154.675041 175.314416 
L 158.226871 176.164712 
L 162.384629 177.10332 
L 171.7614 179.738434 
L 175.790858 181.124469 
L 179.224332 182.372305 
L 182.653886 183.630304 
L 186.096628 184.853869 
L 192.481589 186.873629 
L 196.533727 188.199975 
L 204.043965 190.698827 
L 204.043965 190.698827 
" style="fill:none;stroke:#000000;stroke-linecap:square;stroke-width:1.5;"/>
   </g>
   <g id="line2d_37">
    <path clip-path="url(#p67e06ef552)" d="M 56.451909 174.484108 
L 58.883332 174.427933 
L 64.342062 173.953698 
L 70.414423 173.506869 
L 76.735118 173.340497 
L 107.421312 172.661346 
L 110.444419 172.309401 
L 117.038726 171.137067 
L 125.951968 169.152202 
L 135.942145 166.436749 
L 139.409546 165.288275 
L 146.914927 162.780179 
L 153.742408 160.181039 
L 158.820568 158.122101 
L 162.238148 156.832783 
L 165.722666 155.737447 
L 169.247571 154.78231 
L 170.998144 154.26104 
L 170.998144 154.26104 
" style="fill:none;stroke:#000000;stroke-linecap:square;stroke-width:1.5;"/>
   </g>
   <g id="line2d_38">
    <path clip-path="url(#p67e06ef552)" d="M 56.451909 174.484108 
L 59.493233 174.51758 
L 74.687877 175.007772 
L 84.340329 176.316745 
L 90.352045 177.281789 
L 104.090504 179.982691 
L 109.443393 181.15549 
L 114.843245 182.088417 
L 117.868266 182.428966 
L 122.107502 182.866921 
L 126.942443 183.45725 
L 131.193288 183.763515 
L 140.961588 184.255119 
L 147.03852 184.588443 
L 150.6781 184.890345 
L 156.615762 184.920947 
L 160.389975 184.954954 
L 173.738256 186.0392 
L 177.354281 186.556452 
L 191.723435 189.206783 
L 192.915037 189.462365 
L 192.915037 189.462365 
" style="fill:none;stroke:#000000;stroke-linecap:square;stroke-width:1.5;"/>
   </g>
   <g id="line2d_39">
    <path clip-path="url(#p67e06ef552)" d="M 56.451909 174.484108 
L 60.754458 174.486468 
L 64.394643 174.178821 
L 69.249283 173.777664 
L 73.504529 173.540081 
L 81.407688 173.119221 
L 86.267695 172.801383 
L 93.7912 172.689656 
L 96.585682 172.555133 
L 101.884129 172.389956 
L 117.904964 172.370372 
L 121.557482 172.342346 
L 144.539741 171.682738 
L 148.757712 171.076353 
L 156.004587 170.158509 
L 160.238493 169.662475 
L 163.822857 168.959044 
L 170.910369 167.188712 
L 175.043855 166.145664 
L 175.043855 166.145664 
" style="fill:none;stroke:#000000;stroke-linecap:square;stroke-width:1.5;"/>
   </g>
   <g id="line2d_40">
    <path clip-path="url(#p67e06ef552)" d="M 56.451909 174.484108 
L 65.254684 174.20926 
L 68.280886 173.882824 
L 88.250568 171.684287 
L 91.07169 171.597734 
L 103.165698 171.658711 
L 108.857794 171.427513 
L 113.711198 171.049964 
L 117.349397 170.714089 
L 127.061987 170.019293 
L 133.702499 169.144371 
L 139.127591 168.384806 
L 142.69543 167.599111 
L 149.202546 166.009642 
L 152.132624 165.187012 
L 154.421125 164.356733 
L 161.214899 161.669395 
L 166.82372 159.297708 
L 166.82372 159.297708 
" style="fill:none;stroke:#000000;stroke-linecap:square;stroke-width:1.5;"/>
   </g>
   <g id="line2d_41">
    <path clip-path="url(#p67e06ef552)" d="M 56.451909 174.484108 
L 60.715835 174.439471 
L 68.74655 174.114018 
L 74.209677 173.678272 
L 81.487353 173.061843 
L 88.78162 172.657015 
L 94.240292 172.195727 
L 107.788078 171.736719 
L 119.232344 171.097943 
L 122.602215 171.225021 
L 131.722274 171.742816 
L 134.153203 171.877688 
L 141.136296 171.817082 
L 143.896798 171.621272 
L 164.498861 169.662133 
L 166.933267 169.693963 
L 173.282171 169.91332 
L 178.265036 169.928714 
L 178.265036 169.928714 
" style="fill:none;stroke:#000000;stroke-linecap:square;stroke-width:1.5;"/>
   </g>
   <g id="line2d_42">
    <path clip-path="url(#p67e06ef552)" d="M 56.451909 174.484108 
L 64.482871 174.56504 
L 70.546783 175.1156 
L 73.558066 175.565572 
L 79.544292 176.684042 
L 89.646108 178.939402 
L 102.32351 180.577427 
L 113.238916 181.546688 
L 118.087486 182.007189 
L 122.340956 182.268012 
L 127.206257 182.514306 
L 130.846212 182.833461 
L 136.306485 183.308323 
L 142.369547 183.84085 
L 147.781455 184.705494 
L 153.11338 185.968191 
L 161.332063 188.22578 
L 161.332063 188.22578 
" style="fill:none;stroke:#000000;stroke-linecap:square;stroke-width:1.5;"/>
   </g>
   <g id="line2d_43">
    <path clip-path="url(#p67e06ef552)" d="M 56.451909 174.484108 
L 61.833841 174.509223 
L 70.994899 174.443438 
L 74.03476 174.288548 
L 79.506023 173.958744 
L 81.940393 173.87358 
L 87.416136 174.056834 
L 90.440828 174.397004 
L 94.070193 174.806449 
L 100.128339 175.409068 
L 104.374313 175.767772 
L 108.983495 175.80853 
L 121.157915 175.767855 
L 125.854704 175.651337 
L 132.170013 175.764092 
L 137.205041 175.796239 
L 143.185787 175.681302 
L 146.827566 175.392063 
L 149.846324 174.99605 
L 152.862162 174.589038 
L 157.101267 174.171126 
L 161.323792 173.593852 
L 167.99852 173.042025 
L 174.686522 172.681018 
L 179.189976 172.686146 
L 179.189976 172.686146 
" style="fill:none;stroke:#000000;stroke-linecap:square;stroke-width:1.5;"/>
   </g>
   <g id="line2d_44">
    <path clip-path="url(#p67e06ef552)" d="M 56.451909 174.484108 
L 74.171447 174.480277 
L 80.485888 174.181274 
L 86.547635 173.605894 
L 91.383962 173.026382 
L 100.489661 172.334594 
L 107.181352 172.033991 
L 127.228907 170.700039 
L 130.251092 170.341279 
L 137.502228 169.446818 
L 144.153414 168.65824 
L 157.413145 166.766705 
L 161.002917 166.094051 
L 164.632455 165.680659 
L 172.516742 164.958524 
L 172.516742 164.958524 
" style="fill:none;stroke:#000000;stroke-linecap:square;stroke-width:1.5;"/>
   </g>
   <g id="line2d_45">
    <path clip-path="url(#p67e06ef552)" d="M 56.451909 174.484108 
L 60.642078 174.354341 
L 67.928013 173.859618 
L 73.396057 173.497358 
L 78.248219 173.069776 
L 86.673915 171.781113 
L 94.448728 170.30332 
L 97.422153 169.653375 
L 108.202968 167.686083 
L 112.364707 166.761246 
L 116.525326 165.839676 
L 120.083655 165.013097 
L 124.783265 163.739015 
L 133.99764 160.584817 
L 136.334854 159.901163 
L 138.600151 159.010025 
L 142.552457 157.417331 
L 146.617007 156.135851 
L 149.494445 155.143318 
L 152.879036 153.770904 
L 153.441768 153.538695 
L 153.441768 153.538695 
" style="fill:none;stroke:#000000;stroke-linecap:square;stroke-width:1.5;"/>
   </g>
   <g id="line2d_46">
    <path clip-path="url(#p67e06ef552)" d="M 56.451909 174.484108 
L 62.885044 174.311235 
L 66.817653 174.129745 
L 76.533351 173.454653 
L 80.395549 173.504084 
L 84.655938 173.642851 
L 88.909982 173.88869 
L 98.011171 174.600105 
L 100.406004 175.037634 
L 105.720821 176.369439 
L 108.647243 177.204322 
L 114.994663 179.338098 
L 118.430247 180.585152 
L 123.595885 182.411485 
L 127.033513 183.646361 
L 132.241667 185.347855 
L 135.09839 186.39773 
L 138.594891 187.453096 
L 151.438412 191.259368 
L 159.08664 193.299201 
L 159.08664 193.299201 
" style="fill:none;stroke:#000000;stroke-linecap:square;stroke-width:1.5;"/>
   </g>
   <g id="line2d_47">
    <path clip-path="url(#p67e06ef552)" d="M 56.451909 174.484108 
L 59.45772 174.450643 
L 65.909131 174.32817 
L 68.113064 174.199913 
L 86.902646 172.383888 
L 92.357052 171.862125 
L 98.75583 171.662388 
L 104.595126 171.780939 
L 121.00221 172.736547 
L 127.616104 173.795593 
L 134.22281 174.889778 
L 137.845382 175.366529 
L 142.683888 175.918518 
L 147.516529 176.525299 
L 161.996732 178.467924 
L 176.346279 181.209624 
L 180.539388 181.961542 
L 183.510899 182.619218 
L 188.27296 183.636371 
L 191.191044 184.501157 
L 196.982228 186.375744 
L 199.866103 187.353637 
L 211.932885 191.578853 
L 211.932885 191.578853 
" style="fill:none;stroke:#000000;stroke-linecap:square;stroke-width:1.5;"/>
   </g>
   <g id="line2d_48">
    <path clip-path="url(#p67e06ef552)" d="M 56.451909 174.484108 
L 59.983768 174.475559 
L 77.167994 174.13364 
L 82.028714 173.821121 
L 89.268751 172.829376 
L 97.692396 171.525654 
L 103.032079 170.29808 
L 108.274133 168.698184 
L 114.125088 167.023633 
L 117.111418 166.435039 
L 121.895795 165.523388 
L 127.234473 164.286192 
L 130.837493 163.684159 
L 135.653936 162.96744 
L 141.109502 162.466139 
L 144.756754 162.281174 
L 157.075502 162.285401 
L 161.081473 162.359366 
L 166.486958 162.436691 
L 167.702007 162.515777 
L 167.702007 162.515777 
" style="fill:none;stroke:#000000;stroke-linecap:square;stroke-width:1.5;"/>
   </g>
   <g id="line2d_49">
    <path clip-path="url(#p67e06ef552)" d="M 56.451909 174.484108 
L 61.855229 174.384633 
L 65.819486 174.435816 
L 71.904018 174.713589 
L 77.983534 174.965967 
L 84.770547 174.89137 
L 89.544456 174.974037 
L 98.882766 175.147156 
L 104.187249 175.107568 
L 108.684393 175.162938 
L 115.203144 175.052847 
L 125.657283 175.020372 
L 148.735954 176.660765 
L 160.226034 177.982086 
L 170.541167 178.769165 
L 175.963398 179.54465 
L 181.965789 180.567452 
L 186.793326 181.224483 
L 193.425984 182.159842 
L 196.424297 182.684334 
L 200.594681 183.575742 
L 204.121179 184.526238 
L 209.945081 186.298373 
L 215.242657 187.706377 
L 217.608716 188.280727 
L 221.215688 188.857423 
L 224.232107 189.267353 
L 224.232107 189.267353 
" style="fill:none;stroke:#000000;stroke-linecap:square;stroke-width:1.5;"/>
   </g>
   <g id="line2d_50">
    <path clip-path="url(#p67e06ef552)" d="M 56.451909 174.484108 
L 63.104044 174.433127 
L 73.141136 174.152794 
L 104.690951 172.066364 
L 110.163578 171.809961 
L 113.194128 171.526309 
L 120.443687 170.622069 
L 127.116729 170.028884 
L 130.779979 169.920626 
L 135.677048 169.967642 
L 139.913484 170.158157 
L 142.34526 170.277013 
L 145.387325 170.196453 
L 152.057602 169.590676 
L 161.160357 168.83947 
L 165.415057 168.592503 
L 169.041684 168.153561 
L 172.066164 167.811348 
L 176.912012 167.328165 
L 176.912012 167.328165 
" style="fill:none;stroke:#000000;stroke-linecap:square;stroke-width:1.5;"/>
   </g>
   <g id="line2d_51">
    <path clip-path="url(#p67e06ef552)" d="M 56.451909 174.484108 
L 61.013535 174.603355 
L 67.789741 174.774548 
L 77.550255 174.854391 
L 96.377667 176.188232 
L 106.609714 177.74086 
L 110.190757 178.465751 
L 113.765398 179.215848 
L 124.585412 180.942894 
L 137.892129 182.447555 
L 142.580647 182.561098 
L 146.705154 182.524338 
L 151.950549 182.481683 
L 158.771659 182.483945 
L 164.822987 182.465723 
L 179.940904 182.141448 
L 183.57442 181.762621 
L 187.808578 181.262369 
L 192.040018 180.741591 
L 196.881915 180.220442 
L 202.343754 179.777972 
L 207.806147 179.702018 
L 215.277557 179.869525 
L 225.349724 179.967577 
L 231.430899 180.254133 
L 231.430899 180.254133 
" style="fill:none;stroke:#000000;stroke-linecap:square;stroke-width:1.5;"/>
   </g>
   <g id="line2d_52">
    <path clip-path="url(#p67e06ef552)" d="M 56.451909 174.484108 
L 62.129663 174.344734 
L 66.518964 174.236909 
L 69.970488 174.379966 
L 77.240049 175.114831 
L 80.87025 175.519459 
L 95.052107 176.290863 
L 115.26022 176.149315 
L 118.909889 175.984858 
L 124.822385 175.956703 
L 135.201693 176.06494 
L 150.377455 177.236393 
L 154.607672 177.750811 
L 162.438216 178.89046 
L 165.473749 179.114369 
L 170.331989 179.462224 
L 177.610309 180.083302 
L 186.651088 181.34687 
L 189.084814 181.388363 
L 192.396726 181.426979 
L 196.047724 181.523972 
L 209.710939 181.001265 
L 214.570474 180.650157 
L 218.213853 180.36706 
L 226.713195 179.731687 
L 231.542148 179.099291 
L 232.145778 179.014614 
L 232.145778 179.014614 
" style="fill:none;stroke:#000000;stroke-linecap:square;stroke-width:1.5;"/>
   </g>
   <g id="line2d_53">
    <path clip-path="url(#p67e06ef552)" d="M 56.451909 174.484108 
L 61.908318 174.3146 
L 64.937424 174.023658 
L 70.952592 173.079437 
L 75.131832 172.243014 
L 79.893862 171.222626 
L 87.060658 169.822706 
L 93.108142 169.133997 
L 98.217209 168.958088 
L 103.454763 169.016498 
L 111.246245 169.25815 
L 118.658372 169.15911 
L 122.306563 168.986783 
L 130.189694 168.278208 
L 141.746274 167.756428 
L 148.405929 167.037852 
L 152.045021 166.705766 
L 155.678309 166.312562 
L 158.683538 165.829042 
L 161.645554 165.129321 
L 165.803427 164.191718 
L 169.375051 163.426752 
L 169.375051 163.426752 
" style="fill:none;stroke:#000000;stroke-linecap:square;stroke-width:1.5;"/>
   </g>
   <g id="line2d_54">
    <path clip-path="url(#p67e06ef552)" d="M 56.451909 174.484108 
L 60.095586 174.46429 
L 64.921149 174.555386 
L 71.801613 174.625293 
L 77.251798 175.195592 
L 83.880761 176.150202 
L 91.101849 177.265682 
L 95.272742 178.135771 
L 99.3641 179.329828 
L 115.531095 184.747469 
L 125.242712 188.330076 
L 134.22627 192.089049 
L 142.122986 195.292578 
L 145.447316 196.80559 
L 149.375947 198.459201 
L 149.929509 198.712482 
L 149.929509 198.712482 
" style="fill:none;stroke:#000000;stroke-linecap:square;stroke-width:1.5;"/>
   </g>
   <g id="line2d_55">
    <path clip-path="url(#p67e06ef552)" d="M 56.451909 174.484108 
L 66.509107 174.711231 
L 78.060587 174.555676 
L 80.585088 174.62739 
L 106.657547 176.977434 
L 110.24381 177.675043 
L 122.17237 180.116022 
L 133.619812 181.779204 
L 136.043192 182.014103 
L 146.505075 182.373075 
L 153.812823 182.525908 
L 163.478123 183.731263 
L 187.102686 186.137737 
L 191.34197 186.576253 
L 198.568968 187.633301 
L 203.361351 188.498369 
L 208.794464 189.211165 
L 219.668062 190.561562 
L 223.306788 190.877996 
L 226.330391 191.229749 
L 226.330391 191.229749 
" style="fill:none;stroke:#000000;stroke-linecap:square;stroke-width:1.5;"/>
   </g>
   <g id="line2d_56">
    <path clip-path="url(#p67e06ef552)" d="M 56.451909 174.484108 
L 61.322088 174.37319 
L 66.181648 174.030626 
L 71.006037 173.36082 
L 93.724575 169.011801 
L 96.687068 168.311497 
L 103.874491 167.008683 
L 118.91288 164.668036 
L 121.945149 164.404029 
L 133.495675 163.761291 
L 138.480573 163.763009 
L 146.752954 163.840902 
L 153.888863 163.974565 
L 169.868537 164.374819 
L 171.223019 164.372795 
L 171.223019 164.372795 
" style="fill:none;stroke:#000000;stroke-linecap:square;stroke-width:1.5;"/>
   </g>
   <g id="line2d_57">
    <path clip-path="url(#p67e06ef552)" d="M 56.451909 174.484108 
L 64.260287 174.383017 
L 75.206749 173.802011 
L 78.851946 173.564477 
L 81.995822 173.54943 
L 86.135344 173.541784 
L 92.145126 173.35526 
L 96.399188 173.128358 
L 105.455471 172.963533 
L 116.802549 172.581701 
L 125.335579 172.722971 
L 136.114602 173.121137 
L 147.450517 173.190828 
L 151.094857 172.949908 
L 155.329976 172.47299 
L 161.346239 171.539411 
L 170.93151 169.804819 
L 177.547089 168.75881 
L 177.547089 168.75881 
" style="fill:none;stroke:#000000;stroke-linecap:square;stroke-width:1.5;"/>
   </g>
   <g id="line2d_58">
    <path clip-path="url(#p67e06ef552)" d="M 56.451909 174.484108 
L 63.000295 174.508595 
L 66.641368 174.802201 
L 72.055293 175.646682 
L 75.04404 176.216681 
L 82.102181 178.10801 
L 85.610869 179.125628 
L 90.32948 180.332308 
L 98.088394 181.904832 
L 102.866498 182.855247 
L 108.831613 184.069783 
L 112.993956 184.985041 
L 117.198537 185.682606 
L 129.871028 187.372955 
L 136.532823 188.057403 
L 141.99294 188.495082 
L 146.651771 188.465183 
L 152.621579 188.428243 
L 157.94019 188.562849 
L 161.215336 188.601098 
L 161.215336 188.601098 
" style="fill:none;stroke:#000000;stroke-linecap:square;stroke-width:1.5;"/>
   </g>
   <g id="line2d_59">
    <path clip-path="url(#p67e06ef552)" d="M 56.451909 174.484108 
L 65.512222 174.539598 
L 78.793928 174.858217 
L 86.093018 174.557255 
L 90.321968 174.025455 
L 109.611912 171.309843 
L 132.252023 166.542969 
L 135.186567 165.737169 
L 138.037431 164.673132 
L 145.447421 161.894815 
L 152.986041 159.485716 
L 159.960122 157.308363 
L 166.14872 154.74231 
L 173.416208 151.605812 
L 173.416208 151.605812 
" style="fill:none;stroke:#000000;stroke-linecap:square;stroke-width:1.5;"/>
   </g>
   <g id="line2d_60">
    <path clip-path="url(#p67e06ef552)" d="M 56.451909 174.484108 
L 59.838764 174.452977 
L 72.284148 174.595936 
L 77.140861 174.970649 
L 90.477048 176.234149 
L 94.689515 176.880837 
L 107.295785 179.018393 
L 117.391833 181.285151 
L 120.356513 181.968869 
L 126.370104 182.926589 
L 137.833305 184.441289 
L 143.286039 184.985059 
L 151.17561 185.618511 
L 159.687406 186.060273 
L 165.162243 186.252418 
L 172.331072 186.685336 
L 176.953808 186.516987 
L 186.647597 185.601056 
L 190.858942 184.947443 
L 201.713883 183.441189 
L 207.162251 182.8604 
L 211.368228 182.182235 
L 214.369119 181.674216 
L 217.377827 181.211078 
L 222.195222 180.498566 
L 230.678038 179.660384 
L 231.890486 179.542527 
L 231.890486 179.542527 
" style="fill:none;stroke:#000000;stroke-linecap:square;stroke-width:1.5;"/>
   </g>
   <g id="line2d_61">
    <path clip-path="url(#p67e06ef552)" d="M 56.451909 174.484108 
L 65.110637 174.502932 
L 68.143207 174.759897 
L 71.165351 175.129069 
L 80.251967 176.054221 
L 83.899138 176.252956 
L 97.286383 176.458912 
L 104.534651 176.759622 
L 120.144776 176.647159 
L 123.786077 176.347633 
L 128.612944 175.697114 
L 135.198927 174.4723 
L 139.353191 173.519832 
L 142.878187 172.563714 
L 145.189565 171.80003 
L 149.128816 170.174241 
L 152.470882 168.700191 
L 157.438437 166.385885 
L 161.327754 164.644145 
L 166.918989 162.235363 
L 166.918989 162.235363 
" style="fill:none;stroke:#000000;stroke-linecap:square;stroke-width:1.5;"/>
   </g>
   <g id="line2d_62">
    <path clip-path="url(#p67e06ef552)" d="M 56.451909 174.484108 
L 59.078948 174.474871 
L 69.847809 174.966442 
L 72.853048 175.44715 
L 80.59259 177.079492 
L 92.095503 178.303862 
L 95.082937 178.88286 
L 105.740221 181.438065 
L 110.424669 182.769709 
L 122.856004 185.760058 
L 137.176309 188.679624 
L 141.971102 189.521349 
L 145.560816 190.19711 
L 147.927829 190.765102 
L 156.159864 192.976844 
L 158.507573 193.624292 
L 158.507573 193.624292 
" style="fill:none;stroke:#000000;stroke-linecap:square;stroke-width:1.5;"/>
   </g>
   <g id="line2d_63">
    <path clip-path="url(#p67e06ef552)" d="M 56.451909 174.484108 
L 60.264578 174.437776 
L 64.413959 174.384494 
L 69.354339 174.492514 
L 74.202314 174.574185 
L 90.806041 174.821512 
L 96.265832 175.283179 
L 99.91104 175.506254 
L 108.056991 175.624755 
L 127.800044 175.696949 
L 130.828025 176.008819 
L 133.824891 176.541807 
L 137.42546 177.161165 
L 141.026696 177.771363 
L 151.774169 179.900816 
L 157.073843 181.295994 
L 161.190365 182.39352 
L 168.347545 183.872343 
L 174.883797 185.331673 
L 189.629475 189.099917 
L 189.629475 189.099917 
" style="fill:none;stroke:#000000;stroke-linecap:square;stroke-width:1.5;"/>
   </g>
   <g id="line2d_64">
    <path clip-path="url(#p67e06ef552)" d="M 56.451909 174.484108 
L 61.638974 174.583711 
L 66.955693 174.412066 
L 70.663666 174.262992 
L 80.160366 174.264163 
L 86.024643 174.321632 
L 89.88776 174.151066 
L 96.019851 174.122905 
L 117.124233 174.204937 
L 121.1571 174.380508 
L 130.27047 174.962587 
L 133.894391 175.423695 
L 141.148245 176.301765 
L 144.182435 176.530417 
L 157.337662 176.608178 
L 163.424287 176.407091 
L 167.954939 176.496358 
L 172.032763 176.519372 
L 179.317238 176.408633 
L 186.206345 176.320479 
L 192.9021 176.426423 
L 197.16049 176.273945 
L 202.76493 176.309365 
L 226.38121 175.87147 
L 231.279055 176.003141 
L 234.318223 176.175368 
L 234.318223 176.175368 
" style="fill:none;stroke:#000000;stroke-linecap:square;stroke-width:1.5;"/>
   </g>
   <g id="line2d_65">
    <path clip-path="url(#p67e06ef552)" d="M 56.451909 174.484108 
L 74.182544 174.456941 
L 81.821438 174.37454 
L 84.912032 174.254785 
L 100.938879 174.140369 
L 105.781519 173.616118 
L 110.005327 173.04334 
L 116.035606 172.194083 
L 120.252383 171.578043 
L 124.423627 170.707261 
L 145.790851 165.810184 
L 149.397903 165.234871 
L 152.403614 164.75608 
L 160.151609 163.136556 
L 163.722968 162.368018 
L 166.092442 161.804917 
L 166.092442 161.804917 
" style="fill:none;stroke:#000000;stroke-linecap:square;stroke-width:1.5;"/>
   </g>
   <g id="line2d_66">
    <path clip-path="url(#p67e06ef552)" d="M 56.451909 174.484108 
L 62.098286 174.390285 
L 66.110088 174.571746 
L 72.778594 175.187571 
L 75.76664 175.76658 
L 82.320639 177.143063 
L 88.912819 178.325096 
L 95.513055 179.471477 
L 106.998679 180.848157 
L 110.228934 180.914579 
L 116.888613 181.011861 
L 121.145066 180.81461 
L 132.923606 180.357907 
L 137.119216 180.380149 
L 149.266896 180.001052 
L 154.72814 179.542608 
L 161.403613 179.006376 
L 172.025248 178.648776 
L 190.237823 178.693809 
L 196.725042 178.678647 
L 207.572246 178.709488 
L 213.453301 179.022946 
L 230.389318 179.399514 
L 231.600443 179.525516 
L 231.600443 179.525516 
" style="fill:none;stroke:#000000;stroke-linecap:square;stroke-width:1.5;"/>
   </g>
   <g id="line2d_67">
    <path clip-path="url(#p67e06ef552)" d="M 56.451909 174.484108 
L 64.627922 174.469427 
L 71.166727 174.559515 
L 74.784292 174.626019 
L 80.157999 174.359659 
L 88.057791 173.905982 
L 92.811107 174.067915 
L 97.003495 174.151816 
L 101.505573 174.016956 
L 111.225853 173.420937 
L 129.420263 171.819605 
L 150.06822 170.332231 
L 153.107167 170.15132 
L 156.734699 169.714078 
L 166.390812 168.431485 
L 175.963008 166.617134 
L 175.963008 166.617134 
" style="fill:none;stroke:#000000;stroke-linecap:square;stroke-width:1.5;"/>
   </g>
   <g id="patch_19">
    <path d="M 40.625 233.212 
L 40.625 32.332 
" style="fill:none;stroke:#000000;stroke-linecap:square;stroke-linejoin:miter;stroke-width:0.8;"/>
   </g>
   <g id="patch_20">
    <path d="M 375.425 233.212 
L 375.425 32.332 
" style="fill:none;stroke:#000000;stroke-linecap:square;stroke-linejoin:miter;stroke-width:0.8;"/>
   </g>
   <g id="patch_21">
    <path d="M 40.625 233.212 
L 375.425 233.212 
" style="fill:none;stroke:#000000;stroke-linecap:square;stroke-linejoin:miter;stroke-width:0.8;"/>
   </g>
   <g id="patch_22">
    <path d="M 40.625 32.332 
L 375.425 32.332 
" style="fill:none;stroke:#000000;stroke-linecap:square;stroke-linejoin:miter;stroke-width:0.8;"/>
   </g>
   <g id="legend_1">
    <g id="patch_23">
     <path d="M 38.396094 24.878125 
L 377.653906 24.878125 
Q 379.653906 24.878125 379.653906 22.878125 
L 379.653906 9.2 
Q 379.653906 7.2 377.653906 7.2 
L 38.396094 7.2 
Q 36.396094 7.2 36.396094 9.2 
L 36.396094 22.878125 
Q 36.396094 24.878125 38.396094 24.878125 
z
" style="fill:#ffffff;opacity:0.8;stroke:#cccccc;stroke-linejoin:miter;"/>
    </g>
    <g id="line2d_68">
     <path d="M 40.396094 15.298437 
L 60.396094 15.298437 
" style="fill:none;stroke:#000000;stroke-linecap:square;stroke-width:1.5;"/>
    </g>
    <g id="line2d_69"/>
    <g id="text_16">
     <!-- Boundaries -->
     <defs>
      <path d="M 19.671875 34.8125 
L 19.671875 8.109375 
L 35.5 8.109375 
Q 43.453125 8.109375 47.28125 11.40625 
Q 51.125 14.703125 51.125 21.484375 
Q 51.125 28.328125 47.28125 31.5625 
Q 43.453125 34.8125 35.5 34.8125 
z
M 19.671875 64.796875 
L 19.671875 42.828125 
L 34.28125 42.828125 
Q 41.5 42.828125 45.03125 45.53125 
Q 48.578125 48.25 48.578125 53.8125 
Q 48.578125 59.328125 45.03125 62.0625 
Q 41.5 64.796875 34.28125 64.796875 
z
M 9.8125 72.90625 
L 35.015625 72.90625 
Q 46.296875 72.90625 52.390625 68.21875 
Q 58.5 63.53125 58.5 54.890625 
Q 58.5 48.1875 55.375 44.234375 
Q 52.25 40.28125 46.1875 39.3125 
Q 53.46875 37.75 57.5 32.78125 
Q 61.53125 27.828125 61.53125 20.40625 
Q 61.53125 10.640625 54.890625 5.3125 
Q 48.25 0 35.984375 0 
L 9.8125 0 
z
" id="DejaVuSans-42"/>
      <path d="M 30.609375 48.390625 
Q 23.390625 48.390625 19.1875 42.75 
Q 14.984375 37.109375 14.984375 27.296875 
Q 14.984375 17.484375 19.15625 11.84375 
Q 23.34375 6.203125 30.609375 6.203125 
Q 37.796875 6.203125 41.984375 11.859375 
Q 46.1875 17.53125 46.1875 27.296875 
Q 46.1875 37.015625 41.984375 42.703125 
Q 37.796875 48.390625 30.609375 48.390625 
z
M 30.609375 56 
Q 42.328125 56 49.015625 48.375 
Q 55.71875 40.765625 55.71875 27.296875 
Q 55.71875 13.875 49.015625 6.21875 
Q 42.328125 -1.421875 30.609375 -1.421875 
Q 18.84375 -1.421875 12.171875 6.21875 
Q 5.515625 13.875 5.515625 27.296875 
Q 5.515625 40.765625 12.171875 48.375 
Q 18.84375 56 30.609375 56 
z
" id="DejaVuSans-6f"/>
      <path d="M 8.5 21.578125 
L 8.5 54.6875 
L 17.484375 54.6875 
L 17.484375 21.921875 
Q 17.484375 14.15625 20.5 10.265625 
Q 23.53125 6.390625 29.59375 6.390625 
Q 36.859375 6.390625 41.078125 11.03125 
Q 45.3125 15.671875 45.3125 23.6875 
L 45.3125 54.6875 
L 54.296875 54.6875 
L 54.296875 0 
L 45.3125 0 
L 45.3125 8.40625 
Q 42.046875 3.421875 37.71875 1 
Q 33.40625 -1.421875 27.6875 -1.421875 
Q 18.265625 -1.421875 13.375 4.4375 
Q 8.5 10.296875 8.5 21.578125 
z
M 31.109375 56 
z
" id="DejaVuSans-75"/>
      <path d="M 54.890625 33.015625 
L 54.890625 0 
L 45.90625 0 
L 45.90625 32.71875 
Q 45.90625 40.484375 42.875 44.328125 
Q 39.84375 48.1875 33.796875 48.1875 
Q 26.515625 48.1875 22.3125 43.546875 
Q 18.109375 38.921875 18.109375 30.90625 
L 18.109375 0 
L 9.078125 0 
L 9.078125 54.6875 
L 18.109375 54.6875 
L 18.109375 46.1875 
Q 21.34375 51.125 25.703125 53.5625 
Q 30.078125 56 35.796875 56 
Q 45.21875 56 50.046875 50.171875 
Q 54.890625 44.34375 54.890625 33.015625 
z
" id="DejaVuSans-6e"/>
      <path d="M 45.40625 46.390625 
L 45.40625 75.984375 
L 54.390625 75.984375 
L 54.390625 0 
L 45.40625 0 
L 45.40625 8.203125 
Q 42.578125 3.328125 38.25 0.953125 
Q 33.9375 -1.421875 27.875 -1.421875 
Q 17.96875 -1.421875 11.734375 6.484375 
Q 5.515625 14.40625 5.515625 27.296875 
Q 5.515625 40.1875 11.734375 48.09375 
Q 17.96875 56 27.875 56 
Q 33.9375 56 38.25 53.625 
Q 42.578125 51.265625 45.40625 46.390625 
z
M 14.796875 27.296875 
Q 14.796875 17.390625 18.875 11.75 
Q 22.953125 6.109375 30.078125 6.109375 
Q 37.203125 6.109375 41.296875 11.75 
Q 45.40625 17.390625 45.40625 27.296875 
Q 45.40625 37.203125 41.296875 42.84375 
Q 37.203125 48.484375 30.078125 48.484375 
Q 22.953125 48.484375 18.875 42.84375 
Q 14.796875 37.203125 14.796875 27.296875 
z
" id="DejaVuSans-64"/>
      <path d="M 34.28125 27.484375 
Q 23.390625 27.484375 19.1875 25 
Q 14.984375 22.515625 14.984375 16.5 
Q 14.984375 11.71875 18.140625 8.90625 
Q 21.296875 6.109375 26.703125 6.109375 
Q 34.1875 6.109375 38.703125 11.40625 
Q 43.21875 16.703125 43.21875 25.484375 
L 43.21875 27.484375 
z
M 52.203125 31.203125 
L 52.203125 0 
L 43.21875 0 
L 43.21875 8.296875 
Q 40.140625 3.328125 35.546875 0.953125 
Q 30.953125 -1.421875 24.3125 -1.421875 
Q 15.921875 -1.421875 10.953125 3.296875 
Q 6 8.015625 6 15.921875 
Q 6 25.140625 12.171875 29.828125 
Q 18.359375 34.515625 30.609375 34.515625 
L 43.21875 34.515625 
L 43.21875 35.40625 
Q 43.21875 41.609375 39.140625 45 
Q 35.0625 48.390625 27.6875 48.390625 
Q 23 48.390625 18.546875 47.265625 
Q 14.109375 46.140625 10.015625 43.890625 
L 10.015625 52.203125 
Q 14.9375 54.109375 19.578125 55.046875 
Q 24.21875 56 28.609375 56 
Q 40.484375 56 46.34375 49.84375 
Q 52.203125 43.703125 52.203125 31.203125 
z
" id="DejaVuSans-61"/>
      <path d="M 41.109375 46.296875 
Q 39.59375 47.171875 37.8125 47.578125 
Q 36.03125 48 33.890625 48 
Q 26.265625 48 22.1875 43.046875 
Q 18.109375 38.09375 18.109375 28.8125 
L 18.109375 0 
L 9.078125 0 
L 9.078125 54.6875 
L 18.109375 54.6875 
L 18.109375 46.1875 
Q 20.953125 51.171875 25.484375 53.578125 
Q 30.03125 56 36.53125 56 
Q 37.453125 56 38.578125 55.875 
Q 39.703125 55.765625 41.0625 55.515625 
z
" id="DejaVuSans-72"/>
      <path d="M 9.421875 54.6875 
L 18.40625 54.6875 
L 18.40625 0 
L 9.421875 0 
z
M 9.421875 75.984375 
L 18.40625 75.984375 
L 18.40625 64.59375 
L 9.421875 64.59375 
z
" id="DejaVuSans-69"/>
      <path d="M 56.203125 29.59375 
L 56.203125 25.203125 
L 14.890625 25.203125 
Q 15.484375 15.921875 20.484375 11.0625 
Q 25.484375 6.203125 34.421875 6.203125 
Q 39.59375 6.203125 44.453125 7.46875 
Q 49.3125 8.734375 54.109375 11.28125 
L 54.109375 2.78125 
Q 49.265625 0.734375 44.1875 -0.34375 
Q 39.109375 -1.421875 33.890625 -1.421875 
Q 20.796875 -1.421875 13.15625 6.1875 
Q 5.515625 13.8125 5.515625 26.8125 
Q 5.515625 40.234375 12.765625 48.109375 
Q 20.015625 56 32.328125 56 
Q 43.359375 56 49.78125 48.890625 
Q 56.203125 41.796875 56.203125 29.59375 
z
M 47.21875 32.234375 
Q 47.125 39.59375 43.09375 43.984375 
Q 39.0625 48.390625 32.421875 48.390625 
Q 24.90625 48.390625 20.390625 44.140625 
Q 15.875 39.890625 15.1875 32.171875 
z
" id="DejaVuSans-65"/>
      <path d="M 44.28125 53.078125 
L 44.28125 44.578125 
Q 40.484375 46.53125 36.375 47.5 
Q 32.28125 48.484375 27.875 48.484375 
Q 21.1875 48.484375 17.84375 46.4375 
Q 14.5 44.390625 14.5 40.28125 
Q 14.5 37.15625 16.890625 35.375 
Q 19.28125 33.59375 26.515625 31.984375 
L 29.59375 31.296875 
Q 39.15625 29.25 43.1875 25.515625 
Q 47.21875 21.78125 47.21875 15.09375 
Q 47.21875 7.46875 41.1875 3.015625 
Q 35.15625 -1.421875 24.609375 -1.421875 
Q 20.21875 -1.421875 15.453125 -0.5625 
Q 10.6875 0.296875 5.421875 2 
L 5.421875 11.28125 
Q 10.40625 8.6875 15.234375 7.390625 
Q 20.0625 6.109375 24.8125 6.109375 
Q 31.15625 6.109375 34.5625 8.28125 
Q 37.984375 10.453125 37.984375 14.40625 
Q 37.984375 18.0625 35.515625 20.015625 
Q 33.0625 21.96875 24.703125 23.78125 
L 21.578125 24.515625 
Q 13.234375 26.265625 9.515625 29.90625 
Q 5.8125 33.546875 5.8125 39.890625 
Q 5.8125 47.609375 11.28125 51.796875 
Q 16.75 56 26.8125 56 
Q 31.78125 56 36.171875 55.265625 
Q 40.578125 54.546875 44.28125 53.078125 
z
" id="DejaVuSans-73"/>
     </defs>
     <g transform="translate(68.396094 18.798437)scale(0.1 -0.1)">
      <use xlink:href="#DejaVuSans-42"/>
      <use x="68.603516" xlink:href="#DejaVuSans-6f"/>
      <use x="129.785156" xlink:href="#DejaVuSans-75"/>
      <use x="193.164062" xlink:href="#DejaVuSans-6e"/>
      <use x="256.542969" xlink:href="#DejaVuSans-64"/>
      <use x="320.019531" xlink:href="#DejaVuSans-61"/>
      <use x="381.298828" xlink:href="#DejaVuSans-72"/>
      <use x="422.412109" xlink:href="#DejaVuSans-69"/>
      <use x="450.195312" xlink:href="#DejaVuSans-65"/>
      <use x="511.71875" xlink:href="#DejaVuSans-73"/>
     </g>
    </g>
    <g id="line2d_70"/>
    <g id="line2d_71">
     <g>
      <use style="stroke:#000000;stroke-linejoin:miter;" x="154.778906" xlink:href="#mb40a835c3a" y="15.298437"/>
     </g>
    </g>
    <g id="text_17">
     <!-- Origin -->
     <defs>
      <path d="M 39.40625 66.21875 
Q 28.65625 66.21875 22.328125 58.203125 
Q 16.015625 50.203125 16.015625 36.375 
Q 16.015625 22.609375 22.328125 14.59375 
Q 28.65625 6.59375 39.40625 6.59375 
Q 50.140625 6.59375 56.421875 14.59375 
Q 62.703125 22.609375 62.703125 36.375 
Q 62.703125 50.203125 56.421875 58.203125 
Q 50.140625 66.21875 39.40625 66.21875 
z
M 39.40625 74.21875 
Q 54.734375 74.21875 63.90625 63.9375 
Q 73.09375 53.65625 73.09375 36.375 
Q 73.09375 19.140625 63.90625 8.859375 
Q 54.734375 -1.421875 39.40625 -1.421875 
Q 24.03125 -1.421875 14.8125 8.828125 
Q 5.609375 19.09375 5.609375 36.375 
Q 5.609375 53.65625 14.8125 63.9375 
Q 24.03125 74.21875 39.40625 74.21875 
z
" id="DejaVuSans-4f"/>
      <path d="M 45.40625 27.984375 
Q 45.40625 37.75 41.375 43.109375 
Q 37.359375 48.484375 30.078125 48.484375 
Q 22.859375 48.484375 18.828125 43.109375 
Q 14.796875 37.75 14.796875 27.984375 
Q 14.796875 18.265625 18.828125 12.890625 
Q 22.859375 7.515625 30.078125 7.515625 
Q 37.359375 7.515625 41.375 12.890625 
Q 45.40625 18.265625 45.40625 27.984375 
z
M 54.390625 6.78125 
Q 54.390625 -7.171875 48.1875 -13.984375 
Q 42 -20.796875 29.203125 -20.796875 
Q 24.46875 -20.796875 20.265625 -20.09375 
Q 16.0625 -19.390625 12.109375 -17.921875 
L 12.109375 -9.1875 
Q 16.0625 -11.328125 19.921875 -12.34375 
Q 23.78125 -13.375 27.78125 -13.375 
Q 36.625 -13.375 41.015625 -8.765625 
Q 45.40625 -4.15625 45.40625 5.171875 
L 45.40625 9.625 
Q 42.625 4.78125 38.28125 2.390625 
Q 33.9375 0 27.875 0 
Q 17.828125 0 11.671875 7.65625 
Q 5.515625 15.328125 5.515625 27.984375 
Q 5.515625 40.671875 11.671875 48.328125 
Q 17.828125 56 27.875 56 
Q 33.9375 56 38.28125 53.609375 
Q 42.625 51.21875 45.40625 46.390625 
L 45.40625 54.6875 
L 54.390625 54.6875 
z
" id="DejaVuSans-67"/>
     </defs>
     <g transform="translate(172.778906 18.798437)scale(0.1 -0.1)">
      <use xlink:href="#DejaVuSans-4f"/>
      <use x="78.710938" xlink:href="#DejaVuSans-72"/>
      <use x="119.824219" xlink:href="#DejaVuSans-69"/>
      <use x="147.607422" xlink:href="#DejaVuSans-67"/>
      <use x="211.083984" xlink:href="#DejaVuSans-69"/>
      <use x="238.867188" xlink:href="#DejaVuSans-6e"/>
     </g>
    </g>
    <g id="line2d_72"/>
    <g id="line2d_73">
     <g>
      <use style="stroke:#000000;" x="233.003906" xlink:href="#m58dc915d96" y="15.298437"/>
     </g>
    </g>
    <g id="text_18">
     <!-- Target -->
     <defs>
      <path d="M -0.296875 72.90625 
L 61.375 72.90625 
L 61.375 64.59375 
L 35.5 64.59375 
L 35.5 0 
L 25.59375 0 
L 25.59375 64.59375 
L -0.296875 64.59375 
z
" id="DejaVuSans-54"/>
      <path d="M 18.3125 70.21875 
L 18.3125 54.6875 
L 36.8125 54.6875 
L 36.8125 47.703125 
L 18.3125 47.703125 
L 18.3125 18.015625 
Q 18.3125 11.328125 20.140625 9.421875 
Q 21.96875 7.515625 27.59375 7.515625 
L 36.8125 7.515625 
L 36.8125 0 
L 27.59375 0 
Q 17.1875 0 13.234375 3.875 
Q 9.28125 7.765625 9.28125 18.015625 
L 9.28125 47.703125 
L 2.6875 47.703125 
L 2.6875 54.6875 
L 9.28125 54.6875 
L 9.28125 70.21875 
z
" id="DejaVuSans-74"/>
     </defs>
     <g transform="translate(251.003906 18.798437)scale(0.1 -0.1)">
      <use xlink:href="#DejaVuSans-54"/>
      <use x="60.833984" xlink:href="#DejaVuSans-61"/>
      <use x="122.113281" xlink:href="#DejaVuSans-72"/>
      <use x="163.210938" xlink:href="#DejaVuSans-67"/>
      <use x="226.6875" xlink:href="#DejaVuSans-65"/>
      <use x="288.210938" xlink:href="#DejaVuSans-74"/>
     </g>
    </g>
    <g id="patch_24">
     <path d="M 303.746094 18.798437 
L 323.746094 18.798437 
L 323.746094 11.798437 
L 303.746094 11.798437 
z
" style="fill:#808080;opacity:0.6;stroke:#000000;stroke-linejoin:miter;"/>
    </g>
    <g id="text_19">
     <!-- Obstacle -->
     <defs>
      <path d="M 48.6875 27.296875 
Q 48.6875 37.203125 44.609375 42.84375 
Q 40.53125 48.484375 33.40625 48.484375 
Q 26.265625 48.484375 22.1875 42.84375 
Q 18.109375 37.203125 18.109375 27.296875 
Q 18.109375 17.390625 22.1875 11.75 
Q 26.265625 6.109375 33.40625 6.109375 
Q 40.53125 6.109375 44.609375 11.75 
Q 48.6875 17.390625 48.6875 27.296875 
z
M 18.109375 46.390625 
Q 20.953125 51.265625 25.265625 53.625 
Q 29.59375 56 35.59375 56 
Q 45.5625 56 51.78125 48.09375 
Q 58.015625 40.1875 58.015625 27.296875 
Q 58.015625 14.40625 51.78125 6.484375 
Q 45.5625 -1.421875 35.59375 -1.421875 
Q 29.59375 -1.421875 25.265625 0.953125 
Q 20.953125 3.328125 18.109375 8.203125 
L 18.109375 0 
L 9.078125 0 
L 9.078125 75.984375 
L 18.109375 75.984375 
z
" id="DejaVuSans-62"/>
      <path d="M 48.78125 52.59375 
L 48.78125 44.1875 
Q 44.96875 46.296875 41.140625 47.34375 
Q 37.3125 48.390625 33.40625 48.390625 
Q 24.65625 48.390625 19.8125 42.84375 
Q 14.984375 37.3125 14.984375 27.296875 
Q 14.984375 17.28125 19.8125 11.734375 
Q 24.65625 6.203125 33.40625 6.203125 
Q 37.3125 6.203125 41.140625 7.25 
Q 44.96875 8.296875 48.78125 10.40625 
L 48.78125 2.09375 
Q 45.015625 0.34375 40.984375 -0.53125 
Q 36.96875 -1.421875 32.421875 -1.421875 
Q 20.0625 -1.421875 12.78125 6.34375 
Q 5.515625 14.109375 5.515625 27.296875 
Q 5.515625 40.671875 12.859375 48.328125 
Q 20.21875 56 33.015625 56 
Q 37.15625 56 41.109375 55.140625 
Q 45.0625 54.296875 48.78125 52.59375 
z
" id="DejaVuSans-63"/>
      <path d="M 9.421875 75.984375 
L 18.40625 75.984375 
L 18.40625 0 
L 9.421875 0 
z
" id="DejaVuSans-6c"/>
     </defs>
     <g transform="translate(331.746094 18.798437)scale(0.1 -0.1)">
      <use xlink:href="#DejaVuSans-4f"/>
      <use x="78.710938" xlink:href="#DejaVuSans-62"/>
      <use x="142.1875" xlink:href="#DejaVuSans-73"/>
      <use x="194.287109" xlink:href="#DejaVuSans-74"/>
      <use x="233.496094" xlink:href="#DejaVuSans-61"/>
      <use x="294.775391" xlink:href="#DejaVuSans-63"/>
      <use x="349.755859" xlink:href="#DejaVuSans-6c"/>
      <use x="377.539062" xlink:href="#DejaVuSans-65"/>
     </g>
    </g>
   </g>
  </g>
 </g>
 <defs>
  <clipPath id="p67e06ef552">
   <rect height="200.88" width="334.8" x="40.625" y="32.332"/>
  </clipPath>
 </defs>
</svg>
